# xmcd
# 
# Track frame offsets:
#     150
#     17320
#     33040
#     51190
#     69257
#     85267
#     102722
#     122725
#     142481
#     162124
#     181332
#     201009
# 
# Disc length: 2905
# 
# Revision: 2
# Processed by: cddbd v1.5.2PL0 Copyright (c) Steve Scherf et al.
# Submitted via: fre:ac v1.0.27
# 
DISCID=9e0b570c
DTITLE=Various Artist - Rec 72 Willy Bleyen
DYEAR=0
DGENRE=Top 40
TTITLE0=Jennifer Lopez - If You Had My Love (Radio Edit)
TTITLE1=Kylie Minogue - Spinning Around
TTITLE2=Dire Straits - So Far Away
TTITLE3=Pretenders - I'll Stand By You
TTITLE4=Noordkaap - Arme Joe
TTITLE5=Simon and Garfunkel - Mrs. Robinson
TTITLE6=Grace Jones - I've Seen That Face Before (Libertango)
TTITLE7=Talking Heads - Psycho Killer
TTITLE8=Talking Heads - Once In A Lifetime
TTITLE9=Kim Wilde - You Keep Me Hangin' On
TTITLE10=The Police - Every Little Thing She Does Is Magic
TTITLE11=No Doubt - It's My Life
EXTD=OTS
EXTT0=
EXTT1=
EXTT2=
EXTT3=
EXTT4=
EXTT5=
EXTT6=
EXTT7=
EXTT8=
EXTT9=
EXTT10=
EXTT11=
PLAYORDER=
